<svg width="51" height="51" viewBox="0 0 51 51" fill="none" xmlns="http://www.w3.org/2000/svg">
<rect x="0.824463" y="0.367065" width="50" height="50" rx="2.2046" fill="#6FDAFD" fill-opacity="0.5"/>
<g clip-path="url(#clip0_378_79304)">
<rect width="30" height="30" transform="translate(10.8247 10.367)" fill="#6FDAFD" fill-opacity="0.5"/>
<path d="M35.1997 14.1171H16.4497C15.9524 14.1171 15.4755 14.3146 15.1239 14.6663C14.7723 15.0179 14.5747 15.4948 14.5747 15.9921V34.7421C14.5747 35.2394 14.7723 35.7163 15.1239 36.0679C15.4755 36.4195 15.9524 36.6171 16.4497 36.6171H35.1997C35.697 36.6171 36.1739 36.4195 36.5255 36.0679C36.8772 35.7163 37.0747 35.2394 37.0747 34.7421V15.9921C37.0747 15.4948 36.8772 15.0179 36.5255 14.6663C36.1739 14.3146 35.697 14.1171 35.1997 14.1171Z" stroke="#F8F8F9" stroke-width="1.76368" stroke-linecap="round" stroke-linejoin="round"/>
<path d="M37.0747 32.8671L30.1997 26.6171L23.9497 32.2421L19.5747 28.4921L14.5747 32.2421M22.0747 24.7421C22.9035 24.7421 23.6984 24.4129 24.2844 23.8268C24.8705 23.2408 25.1997 22.4459 25.1997 21.6171C25.1997 20.7883 24.8705 19.9935 24.2844 19.4074C23.6984 18.8214 22.9035 18.4921 22.0747 18.4921C21.2459 18.4921 20.451 18.8214 19.865 19.4074C19.2789 19.9935 18.9497 20.7883 18.9497 21.6171C18.9497 22.4459 19.2789 23.2408 19.865 23.8268C20.451 24.4129 21.2459 24.7421 22.0747 24.7421V24.7421Z" stroke="#F8F8F9" stroke-width="1.76368" stroke-linecap="round" stroke-linejoin="round"/>
<path d="M33.4432 25.0455H26.6002V31.8886H24.3191V25.0455H17.4761V22.7645H24.3191V15.9214H26.6002V22.7645H33.4432V25.0455Z" fill="#767474"/>
</g>
<defs>
<clipPath id="clip0_378_79304">
<rect width="30" height="30" fill="white" transform="translate(10.8247 10.367)"/>
</clipPath>
</defs>
</svg>
