<svg width="48" height="48" viewBox="0 0 48 48" fill="none" xmlns="http://www.w3.org/2000/svg">
<rect x="1.47052" y="1.41409" width="45.6744" height="45.6744" rx="2.42949" stroke="black" stroke-width="0.971795" stroke-dasharray="1.94 1.94"/>
<path d="M33.9445 24.7372C33.9445 24.4688 33.8378 24.2113 33.648 24.0214C33.4581 23.8316 33.2006 23.725 32.9322 23.725C32.6637 23.725 32.4062 23.8316 32.2164 24.0214C32.0265 24.2113 31.9199 24.4688 31.9199 24.7372H33.9445ZM23.8216 16.639C24.0901 16.639 24.3475 16.5323 24.5374 16.3425C24.7272 16.1526 24.8339 15.8951 24.8339 15.6267C24.8339 15.3582 24.7272 15.1007 24.5374 14.9109C24.3475 14.721 24.0901 14.6144 23.8216 14.6144V16.639ZM31.4137 32.8355H16.2294V34.8601H31.4137V32.8355ZM15.7233 32.3294V17.1451H13.6987V32.3294H15.7233ZM31.9199 24.7372V32.3294H33.9445V24.7372H31.9199ZM16.2294 16.639H23.8216V14.6144H16.2294V16.639ZM16.2294 32.8355C16.0952 32.8355 15.9665 32.7822 15.8715 32.6873C15.7766 32.5924 15.7233 32.4636 15.7233 32.3294H13.6987C13.6987 33.0006 13.9654 33.6443 14.44 34.1189C14.9146 34.5935 15.5583 34.8601 16.2294 34.8601V32.8355ZM31.4137 34.8601C32.0849 34.8601 32.7286 34.5935 33.2032 34.1189C33.6778 33.6443 33.9445 33.0006 33.9445 32.3294H31.9199C31.9199 32.4636 31.8666 32.5924 31.7716 32.6873C31.6767 32.7822 31.548 32.8355 31.4137 32.8355V34.8601ZM15.7233 17.1451C15.7233 17.0109 15.7766 16.8821 15.8715 16.7872C15.9665 16.6923 16.0952 16.639 16.2294 16.639V14.6144C15.5583 14.6144 14.9146 14.881 14.44 15.3556C13.9654 15.8302 13.6987 16.4739 13.6987 17.1451H15.7233Z" fill="#DEDFDF"/>
<path d="M14.7112 30.3049L20.1234 25.3436C20.3058 25.1765 20.5431 25.0819 20.7905 25.0778C21.038 25.0737 21.2783 25.1603 21.4662 25.3214L27.8709 30.811M25.8463 28.2803L28.2622 25.8645C28.4345 25.692 28.6632 25.5876 28.9064 25.5703C29.1495 25.553 29.3907 25.624 29.5857 25.7703L32.9323 28.2803M26.8586 18.6636H32.9323M29.8955 15.6267V21.7004" stroke="#DEDFDF" stroke-width="0.934418" stroke-linecap="round" stroke-linejoin="round"/>
</svg>
