<svg width="87" height="87" viewBox="0 0 87 87" fill="none" xmlns="http://www.w3.org/2000/svg">
<rect x="0.838425" y="0.815582" width="85.5895" height="85.4369" rx="5.34935" fill="#B7EDFE"/>
<rect width="51.3537" height="51.2621" transform="translate(17.9563 17.9029)" fill="#B7EDFE"/>
<path d="M59.6812 24.3107H27.5852C26.7339 24.3107 25.9175 24.6482 25.3156 25.2491C24.7137 25.8499 24.3755 26.6648 24.3755 27.5146V59.5534C24.3755 60.4031 24.7137 61.218 25.3156 61.8189C25.9175 62.4197 26.7339 62.7573 27.5852 62.7573H59.6812C60.5325 62.7573 61.3488 62.4197 61.9508 61.8189C62.5527 61.218 62.8908 60.4031 62.8908 59.5534V27.5146C62.8908 26.6648 62.5527 25.8499 61.9508 25.2491C61.3488 24.6482 60.5325 24.3107 59.6812 24.3107Z" stroke="#F8F8F9" stroke-width="4.27948" stroke-linecap="round" stroke-linejoin="round"/>
<path d="M62.8908 56.3495L51.1223 45.6699L40.4236 55.2816L32.9345 48.8738L24.3755 55.2816M37.214 42.466C38.6327 42.466 39.9933 41.9035 40.9965 40.9021C41.9997 39.9006 42.5633 38.5424 42.5633 37.1262C42.5633 35.71 41.9997 34.3518 40.9965 33.3504C39.9933 32.349 38.6327 31.7864 37.214 31.7864C35.7952 31.7864 34.4346 32.349 33.4314 33.3504C32.4282 34.3518 31.8646 35.71 31.8646 37.1262C31.8646 38.5424 32.4282 39.9006 33.4314 40.9021C34.4346 41.9035 35.7952 42.466 37.214 42.466V42.466Z" stroke="#F8F8F9" stroke-width="4.27948" stroke-linecap="round" stroke-linejoin="round"/>
</svg>
